# xmcd
#
# Track frame offsets: 
#        150
#        9508
#        23159
#        47188
#        52132
#        58089
#        72497
#        80313
#        89450
#        97744
#        109841
#        127419
#        151816
#        161408
#        168200
#        190468
#        196325
#        205828
#        220352
#        243399
#
# Disc length: 3907 seconds
#
# Revision: 1
# Processed by: cddbd v1.5.2PL0 Copyright (c) Steve Scherf et al.
# Submitted via: ExactAudioCopy v0.95b4
#
DISCID=1a0f4114
DTITLE=Camel - The Snow Goose [2009 Deluxe]
DYEAR=1975
DGENRE=Rock
TTITLE0=The Great Marsh
TTITLE1=Rhayader
TTITLE2=Rhayader Goes To Town
TTITLE3=Sanctuary
TTITLE4=Fritha
TTITLE5=The Snow Goose
TTITLE6=Friendship
TTITLE7=Migration
TTITLE8=Rhayader Alone
TTITLE9=Flight Of The Snow Goose
TTITLE10=Preparation
TTITLE11=Dunkirk
TTITLE12=Epitaph
TTITLE13=Fritha Alone
TTITLE14=La Princesse Perdue
TTITLE15=The Great Marsh
TTITLE16=Flight Of The Snow Goose (Single Edit)
TTITLE17=Rhayader (Single Edit)
TTITLE18=Rhayader Goes To Town (Live)
TTITLE19=The Snow Goose/Freefall (Live)
EXTD=
EXTT0=
EXTT1=
EXTT2=
EXTT3=
EXTT4=
EXTT5=
EXTT6=
EXTT7=
EXTT8=
EXTT9=
EXTT10=
EXTT11=
EXTT12=
EXTT13=
EXTT14=
EXTT15=
EXTT16=
EXTT17=
EXTT18=
EXTT19=
PLAYORDER=
